HIERARCHY
ROOT Hips
{
 OFFSET 0.000000 0.000000 0.000000
 CHANNELS 6 Xposition Yposition Zposition Yrotation Xrotation Zrotation
 JOINT Chest
 {
  OFFSET 0.000000 9.585900 0.002600
  CHANNELS 3 Yrotation Xrotation Zrotation
  JOINT Chest2
  {
   OFFSET 0.000000 9.601200 -0.005300
   CHANNELS 3 Yrotation Xrotation Zrotation
   JOINT Chest3
   {
    OFFSET 0.000000 9.561800 0.000000
    CHANNELS 3 Yrotation Xrotation Zrotation
    JOINT Chest4
    {
     OFFSET 0.000000 9.552100 0.000000
     CHANNELS 3 Yrotation Xrotation Zrotation
     JOINT Neck
     {
      OFFSET 0.000000 14.453000 0.000000
      CHANNELS 3 Yrotation Xrotation Zrotation
      JOINT Head
      {
       OFFSET 0.000000 8.936500 -0.011300
       CHANNELS 3 Yrotation Xrotation Zrotation
       End Site
       {
        OFFSET 0.000000 17.073600 -0.006000
       }
      }
     }
     JOINT RightCollar
     {
      OFFSET -2.921100 9.558500 0.000000
      CHANNELS 3 Yrotation Xrotation Zrotation
      JOINT RightShoulder
      {
       OFFSET -13.519700 0.000000 0.000000
       CHANNELS 3 Yrotation Xrotation Zrotation
       JOINT RightElbow
       {
        OFFSET 0.000000 -29.696600 0.000000
        CHANNELS 3 Yrotation Xrotation Zrotation
        JOINT RightWrist
        {
         OFFSET 0.000000 -24.004700 0.000000
         CHANNELS 3 Yrotation Xrotation Zrotation
         End Site
         {
          OFFSET 0.000000 -17.728500 0.000000
         }
        }
       }
      }
     }
     JOINT LeftCollar
     {
      OFFSET 2.921100 9.558500 0.000000
      CHANNELS 3 Yrotation Xrotation Zrotation
      JOINT LeftShoulder
      {
       OFFSET 13.519700 0.000000 0.000000
       CHANNELS 3 Yrotation Xrotation Zrotation
       JOINT LeftElbow
       {
        OFFSET 0.000000 -29.696600 0.000000
        CHANNELS 3 Yrotation Xrotation Zrotation
        JOINT LeftWrist
        {
         OFFSET 0.000000 -24.004700 0.000000
         CHANNELS 3 Yrotation Xrotation Zrotation
         End Site
         {
          OFFSET 0.000000 -17.728500 0.000000
         }
        }
       }
      }
     }
    }
   }
  }
 }
 JOINT RightHip
 {
  OFFSET -7.771700 -0.012900 -0.001300
  CHANNELS 3 Yrotation Xrotation Zrotation
  JOINT RightKnee
  {
   OFFSET 0.000000 -40.869800 0.001200
   CHANNELS 3 Yrotation Xrotation Zrotation
   JOINT RightAnkle
   {
    OFFSET 0.000000 -39.717900 0.002100
    CHANNELS 3 Yrotation Xrotation Zrotation
    JOINT RightToe
    {
     OFFSET 0.000000 -4.965400 11.033500
     CHANNELS 3 Yrotation Xrotation Zrotation
     End Site
     {
      OFFSET 0.000000 -1.423100 5.872300
     }
    }
   }
  }
 }
 JOINT LeftHip
 {
  OFFSET 7.771700 -0.012900 -0.001300
  CHANNELS 3 Yrotation Xrotation Zrotation
  JOINT LeftKnee
  {
   OFFSET 0.000000 -40.869800 0.001200
   CHANNELS 3 Yrotation Xrotation Zrotation
   JOINT LeftAnkle
   {
    OFFSET 0.000000 -39.717900 0.002100
    CHANNELS 3 Yrotation Xrotation Zrotation
    JOINT LeftToe
    {
     OFFSET 0.000000 -4.965400 11.033500
     CHANNELS 3 Yrotation Xrotation Zrotation
     End Site
     {
      OFFSET 0.000000 -1.423100 5.872300
     }
    }
   }
  }
 }
}
MOTION
Frames: 5
Frame Time: 0.008333
-207.111216 48.972264 8.167682 175.214300 -32.199480 -3.913979 0.877337 18.704581 1.726996 0.097503 2.190409 0.162632 0.192366 3.640764 0.263165 0.949233 16.337277 1.345594 4.467373 16.203191 -5.098697 10.191725 -4.989791 -11.073593 -1.805643 -2.321517 -2.043447 4.912126 -11.253728 -13.579682 -39.261943 -47.292198 91.888534 1.866159 0.039532 -13.800404 -0.409078 -1.595759 2.341772 -6.353916 -5.695780 14.003957 74.320609 -68.573963 -113.184185 3.056954 8.883043 5.768661 -7.647054 -52.010654 -1.898632 -147.240878 81.245800 -134.382666 -29.963782 -3.750327 -2.416038 -0.007437 -13.825156 -1.843750 -19.364536 -53.508013 22.125823 -73.999220 68.316362 -78.126102 30.304691 9.121188 11.396768 0.126067 -0.335655 -0.009902
-207.118987 48.993570 8.146736 175.277165 -32.190113 -3.944814 0.812365 18.686452 1.728152 0.089395 2.182477 0.163032 0.181076 3.639479 0.261652 0.849506 16.299775 1.336925 4.545491 16.309036 -5.005846 10.198153 -4.851413 -10.876795 -1.703889 -2.255457 -2.082581 4.866506 -11.318451 -13.654559 -39.182356 -47.181940 91.907077 1.859718 0.082895 -13.816616 -0.328498 -1.552542 2.322679 -6.428998 -5.697998 14.055837 74.291140 -68.522768 -113.222481 3.103896 8.868343 5.816626 -7.579388 -52.021865 -1.936582 -147.322240 81.230704 -134.475817 -29.974625 -3.705944 -2.473468 -0.077461 -13.835861 -1.699073 -19.443404 -53.510174 22.132422 -74.040363 68.320904 -78.173733 30.288033 9.130578 11.381274 0.144647 -0.367778 0.004480
-207.130982 49.012454 8.128708 175.329538 -32.176803 -3.975644 0.764542 18.671555 1.732612 0.077435 2.165913 0.165316 0.167787 3.632529 0.265714 0.796833 16.279367 1.327738 4.580140 16.398023 -4.904998 10.188544 -4.717521 -10.678775 -1.692463 -2.199933 -2.118712 4.861664 -11.362504 -13.683709 -39.106165 -47.102495 91.914687 1.875966 0.080866 -13.809929 -0.299663 -1.522682 2.327181 -6.485044 -5.707990 14.108337 74.258392 -68.453143 -113.242222 3.147005 8.849561 5.839141 -7.485297 -52.038491 -1.984638 -147.445587 81.227447 -134.599020 -29.991709 -3.658395 -2.515369 -0.107715 -13.839830 -1.580848 -19.504312 -53.517370 22.143637 -74.073267 68.318470 -78.209871 30.258704 9.137931 11.372970 0.175698 -0.391109 0.016819
-207.146802 49.029210 8.113306 175.396678 -32.161431 -4.019530 0.699503 18.643614 1.741770 0.073154 2.162767 0.163678 0.158795 3.624632 0.266777 0.764573 16.268403 1.325603 4.590483 16.472812 -4.802765 10.164249 -4.591329 -10.484645 -1.763515 -2.169732 -2.159989 4.905092 -11.380968 -13.678725 -39.051384 -46.999936 91.938351 1.933171 0.096004 -13.798987 -0.301174 -1.503529 2.351431 -6.526566 -5.724325 14.157469 74.242281 -68.382754 -113.281106 3.185767 8.826145 5.863501 -7.385619 -52.056388 -2.045912 -147.583832 81.229352 -134.724065 -30.035073 -3.603878 -2.490539 -0.047389 -13.844749 -1.542991 -19.599107 -53.529533 22.166576 -74.108496 68.326331 -78.259703 30.255082 9.144557 11.368082 0.176662 -0.424866 0.042685
-207.164668 49.044632 8.099203 175.443457 -32.156928 -4.064489 0.650588 18.615680 1.760078 0.075345 2.171070 0.162371 0.141012 3.603540 0.269590 0.743015 16.270991 1.324632 4.592911 16.542734 -4.705727 10.127925 -4.474294 -10.298112 -1.733991 -2.134841 -2.182634 4.864302 -11.387146 -13.682061 -39.024984 -46.971858 91.970388 1.917970 0.117231 -13.787392 -0.273618 -1.472396 2.351776 -6.596132 -5.754540 14.234847 74.256110 -68.319586 -113.341795 3.210096 8.803748 5.878474 -7.267404 -52.065015 -2.103995 -147.691355 81.227174 -134.809770 -30.026414 -3.551630 -2.449842 -0.088180 -13.844346 -1.511799 -19.666213 -53.533509 22.194225 -74.159528 68.327115 -78.342928 30.276046 9.189715 11.392733 0.180673 -0.500212 0.050123
